<!-- Generator: Adobe Illustrator 21.1.0, SVG Export Plug-In  -->
<svg version="1.1"
	 xmlns="http://www.w3.org/2000/svg" xmlns:xlink="http://www.w3.org/1999/xlink" xmlns:a="http://ns.adobe.com/AdobeSVGViewerExtensions/3.0/"
	 x="0px" y="0px" width="161.2px" height="191.4px" viewBox="0 0 161.2 191.4" style="enable-background:new 0 0 161.2 191.4;"
	 xml:space="preserve">
<style type="text/css">
	.st0{fill:url(#SVGID_1_);}
	.st1{fill:url(#SVGID_2_);}
	.st2{fill:url(#SVGID_3_);}
	.st3{fill:url(#SVGID_4_);}
	.st4{fill:url(#SVGID_5_);}
	.st5{fill:url(#SVGID_6_);}
</style>
<defs>
</defs>
<linearGradient id="SVGID_1_" gradientUnits="userSpaceOnUse" x1="62.4574" y1="149.9002" x2="62.4574" y2="7.4971">
	<stop  offset="0.1389" style="stop-color:#666666"/>
	<stop  offset="0.4494" style="stop-color:#666666"/>
	<stop  offset="0.9969" style="stop-color:#000000"/>
</linearGradient>
<path class="st0" d="M112.7,145.4c-2.6,0.3-5.2,0.5-7.8,0.5c-37.7,0-68.3-29.1-68.3-65c0-35.9,30.6-65,68.3-65
	c3.4,0,6.8,0.3,10.1,0.8c1.2-4.7,2.4-9.3,3.8-13.7c-6.4-1.3-13.1-1.9-20-1.9C44.2,1.1,0,43.2,0,95.1c0,51.9,44.2,94.1,98.8,94.1
	c9,0,17.8-1.2,26.1-3.3C119.9,174.2,115.8,160.6,112.7,145.4z"/>
<linearGradient id="SVGID_2_" gradientUnits="userSpaceOnUse" x1="4.4418" y1="33.5551" x2="149.6445" y2="33.5551">
	<stop  offset="0" style="stop-color:#FFFF00"/>
	<stop  offset="0.2191" style="stop-color:#FEF705"/>
	<stop  offset="0.5614" style="stop-color:#FAE113"/>
	<stop  offset="0.9822" style="stop-color:#F4BD29"/>
	<stop  offset="1" style="stop-color:#F4BB2A"/>
</linearGradient>
<path class="st1" d="M4.4,67.1c0,0,13.3-41.7,68.3-33.3c55,8.5,70.5-2.1,70.5-2.1s14-7.7,0.7-19.2c0,0-12.7-12.5-48.4-12.5
	C66.1,0,17.8,22.7,4.4,67.1z"/>
<linearGradient id="SVGID_3_" gradientUnits="userSpaceOnUse" x1="4.4381" y1="157.7995" x2="161.2455" y2="157.7995">
	<stop  offset="0" style="stop-color:#FFFF00"/>
	<stop  offset="0.2191" style="stop-color:#FEF705"/>
	<stop  offset="0.5614" style="stop-color:#FAE113"/>
	<stop  offset="0.9822" style="stop-color:#F4BD29"/>
	<stop  offset="1" style="stop-color:#F4BB2A"/>
</linearGradient>
<path class="st2" d="M4.4,124.2c0,0,19,46.4,68.8,22.7c62.2-29.6,83.9,0.1,83.9,0.1s11.5,15.5-4.2,29.9c0,0-13.3,16.1-57.5,14.4
	C66.1,190.1,17.8,168.6,4.4,124.2z"/>
</svg>
